<mxfile host="app.diagrams.net" modified="2023-05-31T04:19:43.838Z" agent="Mozilla/5.0 (Windows NT 10.0; Win64; x64) AppleWebKit/537.36 (KHTML, like Gecko) Chrome/112.0.0.0 Safari/537.36" version="21.3.6" etag="Vx2H1f_72PA25g7YeG-U" type="github">
  <diagram name="Страница 1" id="mURZwMOPX6q2TWPtGR48">
    <mxGraphModel>
      <root>
        <mxCell id="0" />
        <mxCell id="1" parent="0" />
      </root>
    </mxGraphModel>
  </diagram>
</mxfile>
